<svg width="503" height="207" viewBox="0 0 503 207" fill="none" xmlns="http://www.w3.org/2000/svg">
<path d="M418.6 91.3C425 94 432 95.7 439.3 96.1C450 66.2 463.2 37.3 478.6 18.3C467.9 10.2 455.9 0 455.9 0C437 15.9 425.5 52.5 418.6 91.3Z" fill="#3DAE2B"/>
<path d="M394.9 73C401.1 80.9 409.2 87.3 418.6 91.3C421.2 76.9 424.3 62.9 428.3 50C417.5 44 405.1 37 405.1 37C399.3 45 396.3 57.8 394.9 73Z" fill="#1D8649"/>
<path d="M442.2 96.2C475.3 96.2 502.2 69.3 502.2 36.2C502.2 24.4 498.8 13.4 492.9 4.10001C471.1 20.3 453 57.4 439.2 96.1C440.3 96.1 441.2 96.2 442.2 96.2Z" fill="#93D500"/>
</svg>
