<svg xmlns="http://www.w3.org/2000/svg" viewBox="6956 3052 153.298 66.7">
  <defs>
    <style>
      .cls-1 {
        fill: #fff;
      }
    </style>
  </defs>
  <g id="Group_123" data-name="Group 123" transform="translate(6956 3052)">
    <g id="Group_118" data-name="Group 118" transform="translate(0 29.482)">
      <g id="Group_116" data-name="Group 116" transform="translate(121.746 24.122)">
        <path id="Path_133" data-name="Path 133" class="cls-1" d="M717.7,317.985a1.789,1.789,0,0,1,.068-.526,2.361,2.361,0,0,1,.2-.475,1.8,1.8,0,0,1,.713-.712,2.357,2.357,0,0,1,.475-.2,2.071,2.071,0,0,1,1.052,0,2.357,2.357,0,0,1,.475.2,2.321,2.321,0,0,1,.407.305,1.826,1.826,0,0,1,.305.407,2.361,2.361,0,0,1,.2.475,1.865,1.865,0,0,1,.068.526,1.789,1.789,0,0,1-.068.526,2.361,2.361,0,0,1-.2.475,1.8,1.8,0,0,1-.712.712,2.36,2.36,0,0,1-.475.2,2.072,2.072,0,0,1-1.052,0,2.358,2.358,0,0,1-.475-.2,2.321,2.321,0,0,1-.407-.305,1.828,1.828,0,0,1-.305-.407,2.361,2.361,0,0,1-.2-.475A2.622,2.622,0,0,1,717.7,317.985Zm.271,0a2.145,2.145,0,0,0,.051.475,1.849,1.849,0,0,0,.17.424,1.416,1.416,0,0,0,.271.356,1.7,1.7,0,0,0,.339.271,1.468,1.468,0,0,0,.407.17,2.135,2.135,0,0,0,.458.068,1.679,1.679,0,0,0,1.2-.509,1.9,1.9,0,0,0,.373-.56,1.861,1.861,0,0,0,.136-.679,1.463,1.463,0,0,0-.068-.475,1.847,1.847,0,0,0-.17-.424,1.415,1.415,0,0,0-.271-.356,1.705,1.705,0,0,0-.339-.271,1.468,1.468,0,0,0-.407-.17,2.135,2.135,0,0,0-.458-.068,1.679,1.679,0,0,0-1.2.509,1.583,1.583,0,0,0-.356.56A1.728,1.728,0,0,0,717.971,317.985Zm1.323.237v.967h-.424v-2.443h.78a1.138,1.138,0,0,1,.7.17.6.6,0,0,1,.221.509.665.665,0,0,1-.153.441.817.817,0,0,1-.424.254.3.3,0,0,1,.085.068c.017.034.051.051.068.1l.611.916h-.407a.138.138,0,0,1-.136-.068l-.543-.831-.051-.051c-.017-.017-.051-.017-.1-.017h-.221Zm0-.305h.305a1.026,1.026,0,0,0,.254-.034.531.531,0,0,0,.17-.085.37.37,0,0,0,.085-.136.61.61,0,0,0,.034-.187.721.721,0,0,0-.034-.187.3.3,0,0,0-.085-.119.32.32,0,0,0-.153-.068.97.97,0,0,0-.237-.017h-.356v.831Z" transform="translate(-717.7 -316)"/>
      </g>
      <g id="Group_117" data-name="Group 117">
        <path id="Path_134" data-name="Path 134" class="cls-1" d="M20.373,179.51a1.876,1.876,0,0,1-.424.458,1.007,1.007,0,0,1-.611.17,1.517,1.517,0,0,1-.865-.339,13.788,13.788,0,0,0-1.187-.746,9.475,9.475,0,0,0-1.747-.746,8.281,8.281,0,0,0-2.528-.339,8.138,8.138,0,0,0-3.494.712,6.7,6.7,0,0,0-2.545,2.07,9.444,9.444,0,0,0-1.544,3.274,16.839,16.839,0,0,0-.526,4.309,15.949,15.949,0,0,0,.56,4.427,9.715,9.715,0,0,0,1.578,3.257,6.576,6.576,0,0,0,2.477,2,7.54,7.54,0,0,0,3.274.7,8.012,8.012,0,0,0,2.85-.424,8.306,8.306,0,0,0,1.866-.933,13.165,13.165,0,0,0,1.221-.933,1.533,1.533,0,0,1,.967-.424,1.027,1.027,0,0,1,.916.458l1.34,1.764a10.294,10.294,0,0,1-4.41,3.206,15.434,15.434,0,0,1-5.581,1.018,11.77,11.77,0,0,1-4.716-.95,10.6,10.6,0,0,1-3.783-2.748,13.1,13.1,0,0,1-2.528-4.427A17.752,17.752,0,0,1,0,188.331a18.445,18.445,0,0,1,.848-5.666,12.741,12.741,0,0,1,2.46-4.478,10.994,10.994,0,0,1,3.986-2.935,13.382,13.382,0,0,1,5.445-1.052,12.623,12.623,0,0,1,5.021.933,12.084,12.084,0,0,1,3.868,2.646Z" transform="translate(0 -174.132)"/>
        <path id="Path_135" data-name="Path 135" class="cls-1" d="M158.4,202.054v-27.43h2.833a1.232,1.232,0,0,1,1.289,1l.339,2.816a13.86,13.86,0,0,1,3.359-3.053,7.791,7.791,0,0,1,4.309-1.187,6.331,6.331,0,0,1,4.444,1.544,8.661,8.661,0,0,1,2.443,4.173,8.686,8.686,0,0,1,1.476-2.578,8.2,8.2,0,0,1,2.07-1.781,8.613,8.613,0,0,1,2.443-1.035,10.628,10.628,0,0,1,2.629-.322,9.856,9.856,0,0,1,3.8.7,7.54,7.54,0,0,1,2.833,2.019,8.873,8.873,0,0,1,1.781,3.257,14.7,14.7,0,0,1,.611,4.427v17.455h-4.75V184.6a7.393,7.393,0,0,0-1.391-4.885,4.991,4.991,0,0,0-4.037-1.662,5.758,5.758,0,0,0-2.222.424,5.455,5.455,0,0,0-1.849,1.238,6.12,6.12,0,0,0-1.272,2.036,8.154,8.154,0,0,0-.475,2.85v17.455h-4.75V184.6a7.747,7.747,0,0,0-1.306-4.919,4.589,4.589,0,0,0-3.817-1.628,5.955,5.955,0,0,0-3.274.967,10.8,10.8,0,0,0-2.765,2.612v20.441H158.4Z" transform="translate(-131.53 -174.132)"/>
        <path id="Path_136" data-name="Path 136" class="cls-1" d="M416.8,211V174.292h2.833a1.232,1.232,0,0,1,1.289,1l.407,3.257a14.384,14.384,0,0,1,3.969-3.444,10.067,10.067,0,0,1,5.14-1.306,9.869,9.869,0,0,1,4.224.9,8.582,8.582,0,0,1,3.223,2.68,13.019,13.019,0,0,1,2.053,4.394,23.137,23.137,0,0,1,.712,6.039,19.511,19.511,0,0,1-.8,5.649,14.223,14.223,0,0,1-2.29,4.529A10.587,10.587,0,0,1,429,202.095a10.244,10.244,0,0,1-4.292-.831,9.857,9.857,0,0,1-3.138-2.375v12.129H416.8Zm12.044-33.3a7.532,7.532,0,0,0-4.071,1.086,12.09,12.09,0,0,0-3.223,3.053v13.265a7.561,7.561,0,0,0,2.867,2.511,8.03,8.03,0,0,0,3.478.729,6.818,6.818,0,0,0,5.8-2.731c1.357-1.815,2.036-4.427,2.036-7.8a19.051,19.051,0,0,0-.475-4.6,9.17,9.17,0,0,0-1.34-3.155,5.26,5.26,0,0,0-2.171-1.8A7.193,7.193,0,0,0,428.844,177.7Z" transform="translate(-346.097 -173.8)"/>
        <path id="Path_137" data-name="Path 137" class="cls-1" d="M599.756,179.51a1.876,1.876,0,0,1-.424.458,1.007,1.007,0,0,1-.611.17,1.517,1.517,0,0,1-.865-.339,13.791,13.791,0,0,0-1.187-.746,9.476,9.476,0,0,0-1.747-.746,8.281,8.281,0,0,0-2.528-.339,8.138,8.138,0,0,0-3.494.712,6.7,6.7,0,0,0-2.544,2.07,9.444,9.444,0,0,0-1.544,3.274,16.841,16.841,0,0,0-.526,4.309,15.95,15.95,0,0,0,.56,4.427,9.715,9.715,0,0,0,1.578,3.257,6.576,6.576,0,0,0,2.477,2,7.54,7.54,0,0,0,3.274.7,8.013,8.013,0,0,0,2.85-.424,8.306,8.306,0,0,0,1.866-.933,13.167,13.167,0,0,0,1.221-.933,1.533,1.533,0,0,1,.967-.424,1.027,1.027,0,0,1,.916.458l1.34,1.764a10.293,10.293,0,0,1-4.41,3.206,15.434,15.434,0,0,1-5.581,1.018,11.77,11.77,0,0,1-4.716-.95,10.6,10.6,0,0,1-3.783-2.748,13.1,13.1,0,0,1-2.528-4.427,18.125,18.125,0,0,1-.916-5.988,18.444,18.444,0,0,1,.848-5.666,12.741,12.741,0,0,1,2.46-4.478,10.994,10.994,0,0,1,3.986-2.935,13.382,13.382,0,0,1,5.445-1.052,12.624,12.624,0,0,1,5.021.933,12.084,12.084,0,0,1,3.868,2.646Z" transform="translate(-481.114 -174.132)"/>
      </g>
    </g>
    <g id="Group_122" data-name="Group 122" transform="translate(120.864)">
      <g id="Group_119" data-name="Group 119" transform="translate(7.735)">
        <path id="Path_138" data-name="Path 138" class="cls-1" d="M758.1,27.362a18.1,18.1,0,0,0,4.733,1.086c3.766-10.382,7.752-18.371,11.891-23.766C772.417,2.9,770.076.95,768.94,0,764.258,4.461,760.611,13.656,758.1,27.362Z" transform="translate(-758.1)"/>
      </g>
      <g id="Group_120" data-name="Group 120" transform="translate(0 11.959)">
        <path id="Path_139" data-name="Path 139" class="cls-1" d="M712.5,80.356a18.331,18.331,0,0,0,5.734,4.665,115.083,115.083,0,0,1,2.646-11.23c-2.273-1.272-4.631-2.6-5.869-3.291C713.772,72.671,712.924,75.979,712.5,80.356Z" transform="translate(-712.5 -70.5)"/>
      </g>
      <g id="Group_121" data-name="Group 121" transform="translate(14.707 1.51)">
        <path id="Path_140" data-name="Path 140" class="cls-1" d="M814.688,8.9C809.31,13.446,804.1,22.5,799.2,35.906A18.254,18.254,0,0,0,814.688,8.9Z" transform="translate(-799.2 -8.9)"/>
      </g>
    </g>
  </g>
</svg>
