<svg width="503" height="207" viewBox="0 0 503 207" fill="none" xmlns="http://www.w3.org/2000/svg">
<path d="M64 107.9C63.6 108.5 63.1 109 62.7 109.3C62.3 109.6 61.6 109.8 60.8 109.8C60 109.8 59.1 109.5 58.1 108.7C57.1 108 55.9 107.2 54.4 106.4C52.9 105.6 51.1 104.8 49 104.1C46.9 103.4 44.3 103 41.2 103C37.1 103 33.5 103.7 30.3 105.2C27.2 106.7 24.5 108.8 22.4 111.6C20.3 114.4 18.7 117.8 17.6 121.8C16.5 125.8 16 130.2 16 135.2C16 140.4 16.6 144.9 17.7 148.9C18.9 152.9 20.5 156.3 22.6 159C24.7 161.7 27.3 163.8 30.3 165.2C33.3 166.6 36.7 167.3 40.5 167.3C44.1 167.3 47 166.9 49.4 166C51.7 165.1 53.7 164.2 55.2 163.1C56.7 162 58 161.1 59 160.2C60 159.3 61 158.9 62 158.9C63.3 158.9 64.2 159.4 64.8 160.3L68.9 165.8C65.3 170.3 60.7 173.7 55.2 175.8C49.7 177.9 44 179 37.9 179C32.7 179 27.8 178 23.3 176.1C18.8 174.1 14.9 171.3 11.6 167.6C8.29999 163.9 5.69999 159.3 3.79999 153.9C1.89999 148.5 0.899994 142.3 0.899994 135.3C0.899994 129 1.79999 123.1 3.49999 117.7C5.19999 112.3 7.79999 107.7 11.1 103.8C14.4 99.9 18.6 96.9 23.5 94.7C28.4 92.5 34.1 91.4 40.4 91.4C46.3 91.4 51.5 92.4 56 94.3C60.5 96.2 64.5 99 68 102.5L64 107.9Z" fill="#898A8D"/>
<path d="M84.1 177.9V92.8H92.9C95 92.8 96.3 93.8 96.9 95.9L98 104.6C101.1 100.7 104.6 97.6 108.4 95.1C112.2 92.6 116.7 91.4 121.8 91.4C127.5 91.4 132.1 93 135.6 96.2C139.1 99.4 141.6 103.7 143.2 109.1C144.4 106 145.9 103.4 147.8 101.1C149.7 98.9 151.8 97 154.2 95.6C156.6 94.1 159.1 93.1 161.8 92.4C164.5 91.7 167.2 91.4 170 91.4C174.4 91.4 178.4 92.1 181.8 93.5C185.3 94.9 188.2 97 190.6 99.8C193 102.5 194.8 105.9 196.1 109.9C197.4 113.9 198 118.5 198 123.6V177.8H183.2V123.6C183.2 116.9 181.8 111.9 178.9 108.4C176 105 171.9 103.2 166.4 103.2C164 103.2 161.7 103.6 159.5 104.5C157.3 105.4 155.4 106.6 153.7 108.3C152 110 150.7 112.1 149.8 114.6C148.8 117.1 148.3 120.1 148.3 123.5V177.7H133.5V123.5C133.5 116.7 132.1 111.6 129.4 108.2C126.7 104.8 122.7 103.2 117.5 103.2C113.9 103.2 110.5 104.2 107.3 106.2C104.2 108.2 101.3 110.9 98.7 114.3V177.7H84.1V177.9Z" fill="#898A8D"/>
<path d="M220.2 206.7V92.8H229C231.1 92.8 232.4 93.8 233 95.9L234.2 106C237.8 101.6 241.9 98 246.5 95.3C251.1 92.6 256.4 91.3 262.5 91.3C267.3 91.3 271.7 92.2 275.6 94.1C279.5 96 282.9 98.8 285.6 102.4C288.4 106.1 290.5 110.6 292 116.1C293.5 121.5 294.2 127.8 294.2 134.8C294.2 141.1 293.4 146.9 291.7 152.3C290 157.7 287.7 162.4 284.6 166.3C281.5 170.2 277.7 173.4 273.2 175.6C268.7 177.9 263.6 179 258 179C252.8 179 248.4 178.1 244.7 176.4C241 174.7 237.8 172.2 235 169V206.6H220.2V206.7ZM257.6 103.4C252.8 103.4 248.6 104.5 245 106.8C241.4 109 238.1 112.2 235 116.3V157.5C237.7 161.2 240.7 163.8 243.9 165.3C247.1 166.8 250.7 167.6 254.7 167.6C262.5 167.6 268.5 164.8 272.7 159.1C276.9 153.4 279 145.4 279 134.9C279 129.4 278.5 124.6 277.5 120.6C276.5 116.6 275.1 113.4 273.3 110.8C271.5 108.3 269.2 106.4 266.6 105.2C264 103.9 261 103.4 257.6 103.4Z" fill="#898A8D"/>
<path d="M369 107.9C368.6 108.5 368.1 109 367.7 109.3C367.3 109.6 366.6 109.8 365.8 109.8C365 109.8 364.1 109.5 363.1 108.7C362.1 108 360.9 107.2 359.4 106.4C357.9 105.6 356.1 104.8 354 104.1C351.9 103.4 349.3 103 346.2 103C342.1 103 338.5 103.7 335.3 105.2C332.1 106.7 329.5 108.8 327.4 111.6C325.3 114.4 323.7 117.8 322.6 121.8C321.5 125.8 321 130.2 321 135.2C321 140.4 321.6 144.9 322.7 148.9C323.9 152.9 325.5 156.3 327.6 159C329.7 161.7 332.3 163.8 335.3 165.2C338.3 166.6 341.7 167.3 345.5 167.3C349.1 167.3 352 166.9 354.4 166C356.7 165.1 358.7 164.2 360.2 163.1C361.7 162 363 161.1 364 160.2C365 159.3 366 158.9 367 158.9C368.3 158.9 369.2 159.4 369.8 160.3L373.9 165.8C370.3 170.3 365.7 173.7 360.2 175.8C354.7 177.9 349 179 342.9 179C337.7 179 332.8 178 328.3 176.1C323.8 174.1 319.9 171.3 316.6 167.6C313.3 163.9 310.7 159.3 308.8 153.9C306.9 148.5 305.9 142.3 305.9 135.3C305.9 129 306.8 123.1 308.5 117.7C310.2 112.3 312.8 107.7 316.1 103.8C319.4 99.9 323.6 96.9 328.5 94.7C333.4 92.5 339.1 91.4 345.4 91.4C351.3 91.4 356.5 92.4 361 94.3C365.5 96.2 369.5 99 373 102.5L369 107.9Z" fill="#898A8D"/>
<path d="M418.6 91.3C425 94 432 95.7 439.3 96.1C450 66.2 463.2 37.3 478.6 18.3C467.9 10.2 455.9 0 455.9 0C437 15.9 425.5 52.5 418.6 91.3Z" fill="#3DAE2B"/>
<path d="M394.9 73C401.1 80.9 409.2 87.3 418.6 91.3C421.2 76.9 424.3 62.9 428.3 50C417.5 44 405.1 37 405.1 37C399.3 45 396.3 57.8 394.9 73Z" fill="#1D8649"/>
<path d="M442.2 96.2C475.3 96.2 502.2 69.3 502.2 36.2C502.2 24.4 498.8 13.4 492.9 4.10001C471.1 20.3 453 57.4 439.2 96.1C440.3 96.1 441.2 96.2 442.2 96.2Z" fill="#93D500"/>
</svg>
